<svg xmlns="http://www.w3.org/2000/svg" width="524.73" height="830.27" viewBox="0 0 524.73 830.27"><title>obserwarrtory</title><path d="M1127.81,226c-4.67,4.9,10.86,29.12,34.72,54.15" transform="translate(-699.27 -124.85)" fill="none" stroke="#fff" stroke-linecap="round" stroke-miterlimit="10" stroke-width="18"/><path d="M1214.14,316.55c-4.67,4.9-27.75-11.39-51.61-36.42" transform="translate(-699.27 -124.85)" fill="none" stroke="#fff" stroke-linecap="round" stroke-miterlimit="10" stroke-width="18"/><path d="M1094.28,261.15c-4.73,5,10.75,29.24,34.61,54.27" transform="translate(-699.27 -124.85)" fill="none" stroke="#fff" stroke-linecap="round" stroke-miterlimit="10" stroke-width="18"/><path d="M1166.89,348.19c-9.92-6.1-23.82-17.89-38-32.77" transform="translate(-699.27 -124.85)" fill="none" stroke="#fff" stroke-linecap="round" stroke-miterlimit="10" stroke-width="18"/><path d="M1166.89,348.19" transform="translate(-699.27 -124.85)" fill="none" stroke="#fff" stroke-linecap="round" stroke-miterlimit="10" stroke-width="18"/><path d="M1180.47,351.89" transform="translate(-699.27 -124.85)" fill="none" stroke="#fff" stroke-linecap="round" stroke-miterlimit="10" stroke-width="18"/><path d="M1047.25,328.45c-4.65,4.88,7.06,25.08,26.19,45.15" transform="translate(-699.27 -124.85)" fill="none" stroke="#fff" stroke-linecap="round" stroke-miterlimit="10" stroke-width="18"/><path d="M1102.38,397.91c-8.11-4.8-18.54-13.41-28.94-24.31" transform="translate(-699.27 -124.85)" fill="none" stroke="#fff" stroke-linecap="round" stroke-miterlimit="10" stroke-width="18"/><path d="M1102.38,397.91" transform="translate(-699.27 -124.85)" fill="none" stroke="#fff" stroke-linecap="round" stroke-miterlimit="10" stroke-width="18"/><line x1="398.41" y1="150.69" x2="347.99" y2="203.6" fill="none" stroke="#fff" stroke-linecap="round" stroke-miterlimit="10" stroke-width="18"/><line x1="428.66" y1="101.02" x2="395.02" y2="136.31" fill="none" stroke="#fff" stroke-linecap="round" stroke-miterlimit="10" stroke-width="18"/><path d="M1127.92,225.87c4.67-4.9,27.76,11.39,51.62,36.42" transform="translate(-699.27 -124.85)" fill="none" stroke="#fff" stroke-linecap="round" stroke-miterlimit="10" stroke-width="18"/><path d="M1214.15,316.56c4.73-5-10.75-29.24-34.61-54.27" transform="translate(-699.27 -124.85)" fill="none" stroke="#fff" stroke-linecap="round" stroke-miterlimit="10" stroke-width="18"/><path d="M1096.14,504H985.36" transform="translate(-699.27 -124.85)" fill="none" stroke="#fff" stroke-linecap="round" stroke-miterlimit="10" stroke-width="18"/><path d="M985.36,489.77A14.21,14.21,0,1,0,999.57,504,14.21,14.21,0,0,0,985.36,489.77Z" transform="translate(-699.27 -124.85)" fill="#fff"/><path d="M985.36,487.88a16.1,16.1,0,1,1-16.1,16.1,16.12,16.12,0,0,1,16.1-16.1Zm0,28.42A12.32,12.32,0,1,0,973,504a12.33,12.33,0,0,0,12.32,12.32Z" transform="translate(-699.27 -124.85)" fill="#fff"/><path d="M953.07,349.69a133.85,133.85,0,0,1,14.64.8c1.19.13,2.39.27,3.58.44h0q2.67.36,5.32.84c2.36.42,4.71.9,7,1.45,1.15.27,2.31.55,3.44.86s2.31.61,3.45.95a136.77,136.77,0,0,1,34,15.22l.1.06a149.53,149.53,0,0,1,51.52,54.89,159.14,159.14,0,0,1,13,31.07s0,0,0,0c.91,3,1.72,6,2.46,9.11q.67,2.79,1.23,5.61c.26,1.24.49,2.49.71,3.74.34,1.9.64,3.82.91,5.74s.51,3.83.72,5.76c.27,2.59.49,5.2.64,7.83.08,1.31.14,2.62.19,3.94.06,2,.1,4,.1,6" transform="translate(-699.27 -124.85)" fill="none" stroke="#fff" stroke-linecap="round" stroke-miterlimit="10" stroke-width="18"/><path d="M953.07,349.69a133.85,133.85,0,0,0-14.64.8c-1.19.13-2.39.27-3.59.44h0c-1.78.24-3.55.52-5.33.84q-3.54.63-7,1.45c-1.16.27-2.31.55-3.45.86s-2.31.61-3.44.95q-2.55.75-5.07,1.6h0c-44.25,14.83-79.27,52.17-93.54,99.64,0,0,0,0,0,0-.91,3-1.72,6-2.46,9.11q-.68,2.79-1.23,5.61c-.26,1.24-.49,2.49-.71,3.74-.34,1.9-.64,3.82-.91,5.74s-.51,3.83-.72,5.76c-.27,2.59-.49,5.2-.64,7.83-.08,1.31-.14,2.62-.19,3.94-.06,2-.1,4-.1,6" transform="translate(-699.27 -124.85)" fill="none" stroke="#fff" stroke-linecap="round" stroke-miterlimit="10" stroke-width="18"/><polyline points="396.87 417.71 396.87 456.09 396.87 513.9" fill="none" stroke="#fff" stroke-linecap="round" stroke-miterlimit="10" stroke-width="18"/><line x1="326.73" y1="469.15" x2="236.73" y2="469.15" fill="none" stroke="#fff" stroke-linecap="round" stroke-miterlimit="10" stroke-width="18"/><path d="M936,579.79A14.21,14.21,0,1,0,950.21,594,14.21,14.21,0,0,0,936,579.79Z" transform="translate(-699.27 -124.85)" fill="#fff"/><path d="M936,577.9A16.1,16.1,0,1,1,919.9,594,16.12,16.12,0,0,1,936,577.9Zm0,28.42A12.32,12.32,0,1,0,923.68,594,12.33,12.33,0,0,0,936,606.32Z" transform="translate(-699.27 -124.85)" fill="#fff"/><line x1="351.01" y1="218.38" x2="325.33" y2="245.48" fill="none" stroke="#fff" stroke-linecap="round" stroke-miterlimit="10" stroke-width="18"/><line x1="403.11" y1="273.05" x2="393.18" y2="283.47" fill="none" stroke="#fff" stroke-linecap="round" stroke-miterlimit="10" stroke-width="18"/><line x1="467.64" y1="223.32" x2="444.96" y2="247.1" fill="none" stroke="#fff" stroke-linecap="round" stroke-miterlimit="10" stroke-width="18"/><line x1="514.99" y1="191.6" x2="498.17" y2="209.24" fill="none" stroke="#fff" stroke-linecap="round" stroke-miterlimit="10" stroke-width="18"/><line x1="396.87" y1="417.71" x2="182.27" y2="417.71" fill="none" stroke="#fff" stroke-linecap="round" stroke-miterlimit="10" stroke-width="18"/><path d="M881.53,528.35a14.21,14.21,0,1,0,14.22,14.21A14.21,14.21,0,0,0,881.53,528.35Z" transform="translate(-699.27 -124.85)" fill="#fff"/><path d="M881.53,526.46a16.1,16.1,0,1,1-16.1,16.1,16.12,16.12,0,0,1,16.1-16.1Zm0,28.42a12.32,12.32,0,1,0-12.32-12.32,12.34,12.34,0,0,0,12.32,12.32Z" transform="translate(-699.27 -124.85)" fill="#fff"/><line x1="326.73" y1="469.15" x2="326.73" y2="586.15" fill="none" stroke="#fff" stroke-linecap="round" stroke-miterlimit="10" stroke-width="18"/><polyline points="336.85 153.52 254.73 19.15 11.73 415.15 254.73 811.15 497.73 415.15 431.76 307.94" fill="none" stroke="#03a9f4" stroke-linecap="round" stroke-miterlimit="10" stroke-width="20"/><path d="M1127.81,226c-4.67,4.9,10.86,29.12,34.72,54.15" transform="translate(-699.27 -124.85)" fill="none" stroke="#0d47a1" stroke-linecap="round" stroke-miterlimit="10" stroke-width="10"/><path d="M1214.14,316.55c-4.67,4.9-27.75-11.39-51.61-36.42" transform="translate(-699.27 -124.85)" fill="none" stroke="#0d47a1" stroke-linecap="round" stroke-miterlimit="10" stroke-width="10"/><path d="M1094.28,261.15c-4.73,5,10.75,29.24,34.61,54.27" transform="translate(-699.27 -124.85)" fill="none" stroke="#0d47a1" stroke-linecap="round" stroke-miterlimit="10" stroke-width="10"/><path d="M1166.89,348.19c-9.92-6.1-23.82-17.89-38-32.77" transform="translate(-699.27 -124.85)" fill="none" stroke="#0d47a1" stroke-linecap="round" stroke-miterlimit="10" stroke-width="10"/><path d="M1166.89,348.19" transform="translate(-699.27 -124.85)" fill="none" stroke="#0d47a1" stroke-linecap="round" stroke-miterlimit="10" stroke-width="10"/><path d="M1180.47,351.89" transform="translate(-699.27 -124.85)" fill="none" stroke="#0d47a1" stroke-linecap="round" stroke-miterlimit="10" stroke-width="10"/><path d="M1047.25,328.45c-4.65,4.88,7.06,25.08,26.19,45.15" transform="translate(-699.27 -124.85)" fill="none" stroke="#0d47a1" stroke-linecap="round" stroke-miterlimit="10" stroke-width="10"/><path d="M1102.38,397.91c-8.11-4.8-18.54-13.41-28.94-24.31" transform="translate(-699.27 -124.85)" fill="none" stroke="#0d47a1" stroke-linecap="round" stroke-miterlimit="10" stroke-width="10"/><path d="M1102.38,397.91" transform="translate(-699.27 -124.85)" fill="none" stroke="#0d47a1" stroke-linecap="round" stroke-miterlimit="10" stroke-width="10"/><line x1="398.41" y1="150.69" x2="347.99" y2="203.6" fill="none" stroke="#0d47a1" stroke-linecap="round" stroke-miterlimit="10" stroke-width="10"/><line x1="428.66" y1="101.02" x2="395.02" y2="136.31" fill="none" stroke="#0d47a1" stroke-linecap="round" stroke-miterlimit="10" stroke-width="10"/><path d="M1127.92,225.87c4.67-4.9,27.76,11.39,51.62,36.42" transform="translate(-699.27 -124.85)" fill="none" stroke="#0d47a1" stroke-linecap="round" stroke-miterlimit="10" stroke-width="10"/><path d="M1214.15,316.56c4.73-5-10.75-29.24-34.61-54.27" transform="translate(-699.27 -124.85)" fill="none" stroke="#0d47a1" stroke-linecap="round" stroke-miterlimit="10" stroke-width="10"/><path d="M1096.14,504H985.36" transform="translate(-699.27 -124.85)" fill="none" stroke="#0d47a1" stroke-linecap="round" stroke-miterlimit="10" stroke-width="10"/><path d="M985.36,492.7A11.28,11.28,0,1,0,996.64,504,11.28,11.28,0,0,0,985.36,492.7Z" transform="translate(-699.27 -124.85)" fill="#fff"/><path d="M985.36,491.2A12.78,12.78,0,1,1,972.58,504a12.8,12.8,0,0,1,12.78-12.78Zm0,22.56a9.78,9.78,0,1,0-9.78-9.78,9.79,9.79,0,0,0,9.78,9.78Z" transform="translate(-699.27 -124.85)" fill="#0d47a1"/><path d="M953.07,349.69a133.85,133.85,0,0,1,14.64.8c1.19.13,2.39.27,3.58.44h0q2.67.36,5.32.84c2.36.42,4.71.9,7,1.45,1.15.27,2.31.55,3.44.86s2.31.61,3.45.95a136.77,136.77,0,0,1,34,15.22l.1.06a149.53,149.53,0,0,1,51.52,54.89,159.14,159.14,0,0,1,13,31.07s0,0,0,0c.91,3,1.72,6,2.46,9.11q.67,2.79,1.23,5.61c.26,1.24.49,2.49.71,3.74.34,1.9.64,3.82.91,5.74s.51,3.83.72,5.76c.27,2.59.49,5.2.64,7.83.08,1.31.14,2.62.19,3.94.06,2,.1,4,.1,6" transform="translate(-699.27 -124.85)" fill="none" stroke="#0d47a1" stroke-linecap="round" stroke-miterlimit="10" stroke-width="10"/><path d="M953.07,349.69a133.85,133.85,0,0,0-14.64.8c-1.19.13-2.39.27-3.59.44h0c-1.78.24-3.55.52-5.33.84q-3.54.63-7,1.45c-1.16.27-2.31.55-3.45.86s-2.31.61-3.44.95q-2.55.75-5.07,1.6h0c-44.25,14.83-79.27,52.17-93.54,99.64,0,0,0,0,0,0-.91,3-1.72,6-2.46,9.11q-.68,2.79-1.23,5.61c-.26,1.24-.49,2.49-.71,3.74-.34,1.9-.64,3.82-.91,5.74s-.51,3.83-.72,5.76c-.27,2.59-.49,5.2-.64,7.83-.08,1.31-.14,2.62-.19,3.94-.06,2-.1,4-.1,6" transform="translate(-699.27 -124.85)" fill="none" stroke="#0d47a1" stroke-linecap="round" stroke-miterlimit="10" stroke-width="10"/><polyline points="396.87 417.71 396.87 456.09 396.87 513.9" fill="none" stroke="#0d47a1" stroke-linecap="round" stroke-miterlimit="10" stroke-width="10"/><line x1="326.73" y1="469.15" x2="236.73" y2="469.15" fill="none" stroke="#0d47a1" stroke-linecap="round" stroke-miterlimit="10" stroke-width="10"/><path d="M936,582.72A11.28,11.28,0,1,0,947.28,594,11.28,11.28,0,0,0,936,582.72Z" transform="translate(-699.27 -124.85)" fill="#fff"/><path d="M936,581.22A12.78,12.78,0,1,1,923.22,594,12.79,12.79,0,0,1,936,581.22Zm0,22.56a9.78,9.78,0,1,0-9.78-9.78,9.79,9.79,0,0,0,9.78,9.78Z" transform="translate(-699.27 -124.85)" fill="#0d47a1"/><line x1="351.01" y1="218.38" x2="325.33" y2="245.48" fill="none" stroke="#0d47a1" stroke-linecap="round" stroke-miterlimit="10" stroke-width="10"/><line x1="403.11" y1="273.05" x2="393.18" y2="283.47" fill="none" stroke="#0d47a1" stroke-linecap="round" stroke-miterlimit="10" stroke-width="10"/><line x1="467.64" y1="223.32" x2="444.96" y2="247.1" fill="none" stroke="#0d47a1" stroke-linecap="round" stroke-miterlimit="10" stroke-width="10"/><line x1="514.99" y1="191.6" x2="498.17" y2="209.24" fill="none" stroke="#0d47a1" stroke-linecap="round" stroke-miterlimit="10" stroke-width="10"/><line x1="396.87" y1="417.71" x2="182.27" y2="417.71" fill="none" stroke="#0d47a1" stroke-linecap="round" stroke-miterlimit="10" stroke-width="10"/><path d="M881.53,531.28a11.28,11.28,0,1,0,11.28,11.28A11.28,11.28,0,0,0,881.53,531.28Z" transform="translate(-699.27 -124.85)" fill="#fff"/><path d="M881.53,529.78a12.78,12.78,0,1,1-12.77,12.78,12.79,12.79,0,0,1,12.77-12.78Zm0,22.56a9.78,9.78,0,1,0-9.77-9.78,9.79,9.79,0,0,0,9.77,9.78Z" transform="translate(-699.27 -124.85)" fill="#0d47a1"/><line x1="326.73" y1="469.15" x2="326.73" y2="586.15" fill="none" stroke="#0d47a1" stroke-linecap="round" stroke-miterlimit="10" stroke-width="10"/></svg>